<?xml version="1.0" encoding="UTF-8" standalone="no"?>
<svg xmlns="http://www.w3.org/2000/svg" width="180" height="185" version="1.0">
  <path fill-opacity=".19607843" fill-rule="evenodd" d="M164.07127 82.212594c6.71378 47.915716-23.69276 91.812616-67.914894 98.046476-44.222155 6.23387-85.513875-27.55595-92.2276468-75.47165-6.71377-47.915724 23.6927618-91.812624 67.9149018-98.046488C116.06577.50706203 157.3575 34.296886 164.07127 82.212594z"/>
  <path fill="#38618a" fill-rule="evenodd" d="M176.07132 80.212628c6.71379 47.915702-23.69274 91.812582-67.91489 98.046432-44.222154 6.23386-85.513899-27.55596-92.227694-75.47166C9.2149416 54.871706 39.621474 10.97482 83.843627 4.7409676 128.06578-1.4928848 169.35753 32.296929 176.07132 80.212628z"/>
  <path fill="#8da6bf" fill-rule="evenodd" d="M160.05717 82.470148c5.37104 38.332552-18.95418 73.450052-54.33189 78.437142-35.377721 4.98709-68.4111-22.04475-73.782133-60.3773-5.371033-38.332554 18.954181-73.450057 54.331897-78.437145 35.377716-4.987086 68.411096 22.044753 73.782126 60.377303z"/>
  <path fill="#38618a" fill-rule="evenodd" d="m153.00843 51.689943-57.837698 2.742465 2.07845-16.736835-36.744307 25.960114 37.033417 23.982797-2.340394-14.745709 66.296912 2.755361-8.48638-23.958193zM35.760692 129.19371l57.837693-2.74246-2.07845 16.73683 36.744305-25.96011-37.033415-23.982799 2.3404 14.745709-66.296913-2.75536 8.48638 23.95819z"/>
</svg>